<svg width="302" height="64" viewBox="0 0 302 64" fill="none" xmlns="http://www.w3.org/2000/svg">
<path d="M4.59853 26.6848L9.97887 32.0218L15.6629 26.3377L10.2826 20.9574C7.33209 18.0069 7.33209 13.1906 10.2826 10.2401C13.2331 7.28958 18.0494 7.28958 20.9999 10.2401L26.3368 15.577L32.0209 9.89297L26.684 4.55602C20.6094 -1.51855 10.6731 -1.51855 4.59853 4.55602C-1.47604 10.674 -1.47604 20.5669 4.59853 26.6848Z" fill="url(#paint0_linear)"/>
<path d="M53.7602 43.0428C56.7107 45.9933 56.7107 50.8095 53.7602 53.76C50.8096 56.7106 45.9934 56.7106 43.0429 53.76L37.7059 48.4231L32.0219 54.1072L37.3588 59.4441C43.4334 65.5187 53.3696 65.5187 59.4442 59.4441C65.5188 53.3695 65.5188 43.4333 59.4442 37.3587L53.9771 31.8916L48.293 37.5756L53.7602 43.0428Z" fill="url(#paint1_linear)"/>
<path d="M16.4447 38.4868L26.6847 48.7268L32.3688 43.0427L22.1288 32.8027L16.4447 38.4868Z" fill="url(#paint2_linear)"/>
<path d="M47.6854 25.3832L37.619 15.4903L31.9349 21.1744L42.0014 31.0673L47.6854 25.3832Z" fill="url(#paint3_linear)"/>
<path d="M74.4139 17.92C74.8478 17.8332 75.2817 17.7464 75.6722 17.7464C76.1061 17.7031 76.54 17.7031 77.0607 17.7031C77.9284 17.7031 78.7962 17.7898 79.7074 17.9634C79.7942 18.137 79.881 18.3539 79.9678 18.6142C80.0545 18.918 80.1413 19.2217 80.1847 19.5688C80.2715 19.9159 80.3149 20.2197 80.3583 20.5668C80.4017 20.8705 80.4451 21.1742 80.4884 21.3912C80.7488 20.9139 81.0959 20.4366 81.4864 19.9593C81.8769 19.482 82.3542 19.0481 82.9183 18.701C83.4823 18.3539 84.1332 18.0502 84.8274 17.7898C85.5217 17.5729 86.3027 17.4427 87.1705 17.4427C88.4722 17.4427 89.7305 17.7031 90.902 18.1803C92.0735 18.6576 93.0715 19.4387 93.9393 20.4366C94.8071 21.4346 95.4579 22.6929 95.9352 24.2115C96.4125 25.7302 96.6295 27.5092 96.6295 29.5485C96.6295 31.5444 96.3257 33.3234 95.7617 34.9288C95.1976 36.4909 94.3298 37.8359 93.2451 38.9641C92.1603 40.0488 90.7718 40.9166 89.2098 41.5241C87.6044 42.1315 85.782 42.4353 83.7861 42.4353C83.2654 42.4353 82.7447 42.3919 82.224 42.3485C81.7034 42.3051 81.3129 42.2617 80.9657 42.1749V52.762C80.4017 52.8488 79.8376 52.9356 79.2735 52.9356C78.7529 52.979 78.1888 52.979 77.6681 52.979C77.1474 52.979 76.6268 52.979 76.0627 52.9356C75.542 52.8922 74.9779 52.8488 74.3705 52.762V17.92H74.4139ZM80.9657 36.7078C81.7901 36.9681 82.7447 37.0549 83.8295 37.0549C85.7386 37.0549 87.2139 36.4475 88.2118 35.2325C89.2098 34.0176 89.7305 32.1519 89.7305 29.6353C89.7305 28.6807 89.6437 27.8129 89.5135 26.9885C89.34 26.1641 89.0796 25.4698 88.7325 24.9058C88.3854 24.3417 87.9081 23.8644 87.344 23.5173C86.78 23.1702 86.0857 22.9966 85.2613 22.9966C84.4803 22.9966 83.8295 23.1268 83.3088 23.4305C82.7881 23.7342 82.3542 24.1248 82.0071 24.6454C81.66 25.1661 81.443 25.7302 81.2695 26.4244C81.0959 27.1186 81.0525 27.8129 81.0525 28.5939V36.7078H80.9657Z" fill="#446CA9"/>
<path d="M111.859 26.1207C111.859 25.383 111.729 24.7756 111.512 24.3417C111.251 23.8644 110.948 23.5173 110.514 23.2569C110.08 22.9966 109.559 22.823 108.908 22.7363C108.257 22.6495 107.563 22.6061 106.826 22.6061C105.177 22.6061 103.398 22.9098 101.532 23.5607C101.098 22.7796 100.794 21.9986 100.577 21.3044C100.36 20.6102 100.274 19.7424 100.274 18.7878C101.619 18.3105 102.964 18.0068 104.309 17.7898C105.654 17.5729 106.912 17.4861 108.084 17.4861C111.295 17.4861 113.768 18.2671 115.59 19.7857C117.369 21.3044 118.28 23.7776 118.28 27.162V41.0034C117.196 41.3505 115.894 41.6542 114.375 41.9579C112.857 42.2617 111.121 42.4352 109.169 42.4352C107.607 42.4352 106.175 42.3051 104.873 42.0013C103.571 41.741 102.443 41.2637 101.489 40.6129C100.534 39.962 99.8398 39.1376 99.3191 38.1396C98.7984 37.1417 98.5381 35.8834 98.5381 34.4081C98.5381 32.9329 98.8418 31.7179 99.4927 30.6766C100.144 29.6786 100.925 28.8976 101.922 28.2902C102.92 27.6827 104.049 27.2488 105.264 26.9885C106.478 26.7281 107.737 26.5979 108.952 26.5979C109.863 26.5979 110.817 26.6413 111.902 26.7281V26.1207H111.859ZM111.859 30.8502C111.512 30.8068 111.078 30.72 110.644 30.6766C110.21 30.6332 109.819 30.5898 109.472 30.5898C107.954 30.5898 106.782 30.8501 105.914 31.4142C105.047 31.9349 104.613 32.8027 104.613 34.0176C104.613 34.7986 104.786 35.4495 105.133 35.84C105.48 36.2739 105.871 36.5776 106.348 36.7946C106.826 37.0115 107.346 37.0983 107.867 37.1851C108.388 37.2285 108.865 37.2718 109.255 37.2718C109.733 37.2718 110.167 37.2285 110.644 37.1417C111.121 37.0549 111.512 37.0115 111.859 36.9247V30.8502Z" fill="#446CA9"/>
<path d="M137.459 36.1873C137.806 36.7948 138.153 37.5324 138.37 38.3134C138.631 39.1378 138.761 40.0924 138.761 41.1771C137.546 41.6544 136.374 42.0015 135.29 42.1317C134.205 42.2619 133.077 42.3487 131.905 42.3487C129.909 42.3487 128.174 42.0449 126.698 41.3941C125.223 40.7432 124.008 39.8754 123.054 38.7907C122.099 37.7059 121.361 36.3609 120.884 34.8422C120.407 33.3236 120.146 31.6748 120.146 29.8958C120.146 28.1602 120.363 26.5114 120.841 24.9927C121.318 23.4741 122.056 22.1724 123.01 21.0442C123.965 19.9161 125.18 19.0049 126.612 18.3541C128.043 17.7032 129.736 17.3995 131.645 17.3995C132.339 17.3995 132.946 17.3995 133.511 17.4429C134.075 17.4863 134.639 17.5297 135.159 17.6165C135.68 17.7032 136.201 17.8334 136.721 17.9636C137.242 18.1371 137.806 18.3107 138.457 18.571C138.457 19.2653 138.37 20.0897 138.197 20.9575C138.023 21.8253 137.719 22.6497 137.329 23.4741C136.418 23.1704 135.593 22.9534 134.899 22.8666C134.205 22.7798 133.424 22.6931 132.513 22.6931C130.603 22.6931 129.172 23.3005 128.217 24.5588C127.262 25.8171 126.785 27.5961 126.785 29.8958C126.785 32.369 127.306 34.1914 128.347 35.3195C129.389 36.4476 130.82 37.0117 132.599 37.0117C133.077 37.0117 133.467 37.0117 133.858 36.9683C134.248 36.9683 134.639 36.9249 134.986 36.8381C135.333 36.7948 135.723 36.6646 136.114 36.5778C136.504 36.491 136.938 36.3609 137.459 36.1873Z" fill="#446CA9"/>
<path d="M141.495 8.11395C142.536 7.94039 143.621 7.85361 144.705 7.85361C145.79 7.85361 146.918 7.94039 147.96 8.11395V41.8278C146.875 42.0014 145.79 42.0882 144.705 42.0882C143.621 42.0882 142.536 42.0014 141.495 41.8278V8.11395ZM148.914 29.2882L154.815 17.9634C156.03 17.7899 157.245 17.7031 158.46 17.7031C159.631 17.7031 160.76 17.7899 161.888 17.9634L155.813 28.9845L162.929 41.7845C161.671 41.958 160.456 42.0448 159.284 42.0448C158.2 42.0448 157.071 41.958 155.857 41.7845L148.914 29.2882Z" fill="#446CA9"/>
<path d="M168.7 31.8917C168.83 33.7141 169.481 35.0592 170.652 35.8836C171.824 36.708 173.342 37.1419 175.251 37.1419C176.293 37.1419 177.378 37.0551 178.462 36.8381C179.547 36.6212 180.588 36.3609 181.586 35.9704C181.933 36.5778 182.237 37.3154 182.454 38.1832C182.715 39.051 182.845 39.9622 182.888 40.9602C180.502 41.8714 177.768 42.3487 174.774 42.3487C172.561 42.3487 170.652 42.0449 169.09 41.4375C167.528 40.83 166.226 39.9622 165.228 38.8775C164.23 37.7927 163.493 36.491 163.016 34.9724C162.538 33.4537 162.321 31.8049 162.321 30.0259C162.321 28.2904 162.582 26.6415 163.059 25.0795C163.536 23.5609 164.274 22.2158 165.228 21.0876C166.183 19.9595 167.398 19.0483 168.83 18.3975C170.262 17.7466 171.91 17.3995 173.82 17.3995C175.468 17.3995 176.944 17.7032 178.245 18.2673C179.547 18.8314 180.632 19.6558 181.543 20.6537C182.454 21.6517 183.148 22.8666 183.582 24.2551C184.06 25.6436 184.277 27.1622 184.277 28.7676C184.277 29.3317 184.233 29.9392 184.19 30.5032C184.146 31.0673 184.103 31.5446 184.016 31.8483H168.7V31.8917ZM178.028 27.3358C177.985 25.8605 177.551 24.689 176.813 23.7778C176.076 22.8666 174.991 22.4327 173.646 22.4327C172.127 22.4327 170.956 22.8666 170.131 23.7344C169.35 24.6022 168.873 25.8171 168.7 27.3792H178.028V27.3358Z" fill="#446CA9"/>
<path d="M188.572 22.9534H185.578L185.361 22.0423L193.996 11.0212H195.037V17.9636H200.634C200.721 18.4409 200.808 18.8314 200.808 19.2219C200.851 19.6124 200.851 19.9595 200.851 20.3934C200.851 20.8273 200.851 21.2179 200.808 21.6517C200.764 22.0423 200.721 22.4762 200.634 22.9968H195.037V32.369C195.037 33.3236 195.124 34.1046 195.254 34.6687C195.427 35.2328 195.644 35.7101 195.905 36.0572C196.208 36.4043 196.556 36.6212 196.989 36.7514C197.423 36.8816 197.944 36.925 198.508 36.925C198.985 36.925 199.419 36.8816 199.853 36.7948C200.287 36.708 200.678 36.6646 201.025 36.5779C201.242 37.1419 201.372 37.7494 201.502 38.4002C201.589 39.0511 201.632 39.5718 201.632 40.0924C201.632 40.4395 201.632 40.6999 201.589 40.9602C201.589 41.1772 201.545 41.3941 201.502 41.6111C200.07 41.9582 198.638 42.1318 197.12 42.1318C194.343 42.1318 192.173 41.4809 190.698 40.1792C189.223 38.8775 188.485 36.7514 188.485 33.8009V22.9534H188.572Z" fill="#446CA9"/>
<path d="M207.707 20.8707H203.716C203.672 20.6971 203.672 20.5235 203.629 20.3066C203.629 20.0896 203.585 19.8727 203.585 19.6124C203.585 19.352 203.585 19.1351 203.629 18.8747C203.629 18.6144 203.672 18.4408 203.716 18.2673H207.707V16.1846C207.707 13.2774 208.358 11.1513 209.617 9.67608C210.875 8.24422 212.914 7.50659 215.691 7.50659C216.342 7.50659 216.949 7.54998 217.47 7.63676C217.991 7.72354 218.468 7.81032 218.815 7.8971C218.772 8.46117 218.685 8.93845 218.598 9.32896C218.511 9.67608 218.425 10.11 218.294 10.5439C218.034 10.5005 217.644 10.4137 217.21 10.3269C216.732 10.2402 216.255 10.1968 215.734 10.1968C214.953 10.1968 214.216 10.2835 213.608 10.4571C213.001 10.6307 212.48 10.9344 212.046 11.3683C211.612 11.8022 211.309 12.453 211.092 13.234C210.875 14.0151 210.745 15.0564 210.745 16.3147V18.2673H217.21C217.253 18.4408 217.253 18.6144 217.297 18.8747C217.297 19.1351 217.34 19.352 217.34 19.6124C217.34 19.8727 217.34 20.0896 217.297 20.3066C217.297 20.5235 217.253 20.6971 217.21 20.8707H210.745V41.7846C210.571 41.8279 210.311 41.8279 209.964 41.8713C209.66 41.8713 209.4 41.9147 209.183 41.9147C209.009 41.9147 208.792 41.9147 208.445 41.8713C208.098 41.8713 207.838 41.8279 207.664 41.7846V20.8707H207.707Z" fill="#F7B334"/>
<path d="M232.136 26.251C232.136 24.2117 231.659 22.7364 230.704 21.7819C229.749 20.8273 228.317 20.3934 226.452 20.3934C225.237 20.3934 224.109 20.4802 223.067 20.6537C222.069 20.8273 221.158 21.0442 220.334 21.2612C220.16 21.0008 220.03 20.5669 219.943 20.0463C219.856 19.5256 219.77 19.0483 219.77 18.571C220.551 18.3107 221.549 18.1371 222.72 17.9636C223.892 17.79 225.107 17.7032 226.322 17.7032C229.315 17.7032 231.528 18.3541 232.96 19.6558C234.392 20.9575 235.13 22.9968 235.13 25.8171V41.3507C234.045 41.5676 232.743 41.7846 231.225 42.0015C229.706 42.2185 228.231 42.3052 226.842 42.3052C223.979 42.3052 221.722 41.7412 220.073 40.613C218.425 39.4849 217.6 37.6191 217.6 35.1025C217.6 33.8876 217.817 32.7595 218.294 31.8049C218.772 30.8503 219.423 30.0259 220.29 29.3751C221.115 28.7242 222.156 28.2036 223.328 27.8564C224.499 27.5093 225.801 27.3358 227.233 27.3358C228.317 27.3358 229.272 27.3791 230.096 27.4659C230.878 27.5527 231.572 27.5961 232.092 27.6829V26.251H232.136ZM232.136 30.373C231.615 30.3297 230.964 30.2429 230.183 30.1561C229.402 30.0693 228.665 30.0259 227.927 30.0259C225.627 30.0259 223.848 30.4598 222.59 31.3276C221.332 32.1954 220.681 33.4103 220.681 35.0158C220.681 36.0137 220.854 36.8381 221.245 37.4456C221.635 38.053 222.113 38.5303 222.764 38.8341C223.371 39.1378 224.065 39.3547 224.803 39.4849C225.541 39.5717 226.278 39.6585 227.016 39.6585C227.97 39.6585 228.838 39.6151 229.706 39.5283C230.53 39.4415 231.355 39.3113 232.136 39.1378V30.373V30.373Z" fill="#F7B334"/>
<path d="M238.817 7.89702C238.991 7.85363 239.251 7.85362 239.598 7.81023C239.902 7.81023 240.162 7.76685 240.379 7.76685C240.553 7.76685 240.77 7.76685 241.117 7.81023C241.464 7.81023 241.725 7.85363 241.898 7.89702V21.5214C242.549 20.5235 243.46 19.6557 244.675 18.8746C245.89 18.0936 247.452 17.7031 249.405 17.7031C250.836 17.7031 252.181 17.9201 253.353 18.354C254.568 18.7879 255.566 19.4821 256.434 20.4367C257.258 21.3913 257.952 22.6062 258.43 24.038C258.907 25.4699 259.124 27.2055 259.124 29.2448C259.124 33.3235 257.996 36.5343 255.739 38.834C253.483 41.1336 250.272 42.3051 246.02 42.3051C244.632 42.3051 243.287 42.175 242.028 41.9146C240.727 41.6543 239.685 41.3506 238.861 41.0468V7.89702H238.817ZM241.855 38.9641C242.549 39.2245 243.287 39.398 244.111 39.4848C244.892 39.5716 245.716 39.6584 246.628 39.6584C247.842 39.6584 249.014 39.4414 250.142 39.0509C251.27 38.6604 252.268 38.0529 253.093 37.2285C253.917 36.4041 254.611 35.3628 255.132 34.0611C255.653 32.8028 255.913 31.2407 255.913 29.4618C255.913 26.6848 255.392 24.4719 254.308 22.8665C253.266 21.2611 251.531 20.4801 249.188 20.4801C248.45 20.4801 247.669 20.6102 246.801 20.8706C245.933 21.1309 245.152 21.5214 244.415 22.1289C243.677 22.6929 243.113 23.474 242.636 24.4719C242.158 25.4265 241.941 26.6414 241.941 28.1167V38.9641H241.855Z" fill="#F7B334"/>
<path d="M261.64 18.2671C261.901 18.2237 262.118 18.2237 262.335 18.1804C262.552 18.1804 262.769 18.137 262.986 18.137C263.246 18.137 263.463 18.137 263.68 18.1804C263.897 18.1804 264.114 18.2237 264.374 18.2671C264.417 18.8312 264.461 19.482 264.504 20.2197C264.548 20.9573 264.548 21.6515 264.548 22.259C265.155 21.1309 266.023 20.1763 267.108 19.3953C268.192 18.6143 269.668 18.2237 271.49 18.2237C271.663 18.2237 271.794 18.2237 271.967 18.2237C272.141 18.2237 272.314 18.2237 272.531 18.2671C272.618 18.7878 272.661 19.2651 272.661 19.7424C272.661 20.2197 272.618 20.697 272.531 21.1743C272.271 21.1309 272.097 21.1309 271.967 21.1309C271.837 21.1309 271.663 21.1309 271.533 21.1309C269.451 21.1309 267.758 21.7817 266.5 23.1268C265.242 24.4285 264.591 26.6414 264.591 29.722V41.7844C264.417 41.8278 264.157 41.8278 263.81 41.8712C263.506 41.8712 263.246 41.9146 263.029 41.9146C262.855 41.9146 262.638 41.9146 262.291 41.8712C261.944 41.8712 261.684 41.8278 261.51 41.7844V18.2671H261.64Z" fill="#F7B334"/>
<path d="M278.476 20.8706H275.525C275.482 20.697 275.482 20.5235 275.438 20.3065C275.438 20.0896 275.395 19.8726 275.395 19.6123C275.395 19.352 275.395 19.135 275.438 18.8747C275.438 18.6143 275.482 18.4408 275.525 18.2672H281.513V41.7845C281.339 41.8279 281.079 41.8279 280.732 41.8713C280.428 41.8713 280.168 41.9147 279.951 41.9147C279.777 41.9147 279.56 41.9147 279.213 41.8713C278.866 41.8713 278.606 41.8279 278.432 41.7845V20.8706H278.476ZM276.957 12.5398C276.914 12.2794 276.914 11.9323 276.87 11.5418C276.87 11.1513 276.827 10.8042 276.827 10.5438C276.827 10.2835 276.827 9.97975 276.87 9.63263C276.87 9.24213 276.914 8.9384 276.957 8.72145C277.217 8.67806 277.565 8.67806 277.955 8.63467C278.346 8.63467 278.693 8.59128 278.953 8.59128C279.213 8.59128 279.517 8.59128 279.864 8.63467C280.211 8.63467 280.558 8.67806 280.775 8.72145C280.819 8.98179 280.819 9.28552 280.862 9.63263C280.862 9.97975 280.906 10.3269 280.906 10.5438C280.906 10.8042 280.906 11.1513 280.862 11.5418C280.862 11.9323 280.819 12.2794 280.775 12.5398C280.515 12.5831 280.211 12.5831 279.864 12.6265C279.474 12.6265 279.17 12.6699 278.953 12.6699C278.693 12.6699 278.346 12.6699 277.955 12.6265C277.565 12.5831 277.217 12.5398 276.957 12.5398Z" fill="#F7B334"/>
<path d="M300.822 38.8341C300.995 39.1378 301.126 39.5717 301.256 40.0924C301.386 40.6131 301.473 41.0469 301.56 41.3941C300.779 41.6544 299.911 41.9147 298.913 42.0883C297.915 42.2619 296.83 42.3486 295.659 42.3486C291.797 42.3486 288.89 41.3073 286.894 39.1812C284.898 37.0551 283.9 34.0178 283.9 30.0259C283.9 28.2903 284.16 26.6415 284.638 25.1663C285.115 23.691 285.852 22.3893 286.807 21.2612C287.762 20.1764 288.933 19.3086 290.365 18.6578C291.797 18.0069 293.446 17.7032 295.311 17.7032C296.483 17.7032 297.611 17.79 298.652 17.9636C299.694 18.1371 300.562 18.3107 301.169 18.5276C301.169 18.9181 301.126 19.3954 300.995 19.9161C300.909 20.4368 300.779 20.8707 300.648 21.1744C300.041 20.9575 299.26 20.7839 298.305 20.6103C297.351 20.4368 296.353 20.3934 295.268 20.3934C293.88 20.3934 292.665 20.6103 291.667 21.0876C290.625 21.5649 289.758 22.2158 289.107 23.0836C288.412 23.9514 287.892 24.9493 287.545 26.1208C287.198 27.2924 287.024 28.5941 287.024 29.9825C287.024 33.2802 287.805 35.7534 289.41 37.272C290.972 38.8341 293.142 39.6151 295.832 39.6151C296.743 39.6151 297.654 39.5283 298.479 39.3981C299.39 39.268 300.171 39.0944 300.822 38.8341Z" fill="#F7B334"/>
<path d="M59.4476 4.55593C53.3731 -1.51864 43.4368 -1.51864 37.3622 4.55593L32.0253 9.89288L11.9792 29.939C9.93986 31.8481 8.16088 30.1993 8.0741 30.1125L13.1941 35.2325C15.6239 37.6624 17.6199 35.7098 17.6199 35.7098L38.1432 15.1864L43.0463 10.2834C45.9968 7.33288 50.8131 7.33288 53.7636 10.2834C56.7141 13.2339 56.7141 18.0502 53.7636 21.0007L49.2077 25.5132L54.8917 31.1973L59.4476 26.6414C65.5656 20.5234 65.5656 10.6305 59.4476 4.55593Z" fill="#4678BB"/>
<path d="M8.07402 30.1161C8.02283 30.0649 8.07402 30.1161 8.07402 30.1161V30.1161Z" fill="#4678BB"/>
<path d="M4.55593 59.4441C10.6305 65.5187 20.5668 65.5187 26.6414 59.4441L31.9783 54.1072L52.0244 34.0611C54.0637 32.1519 55.8427 33.8007 55.9295 33.9309L50.8095 28.8109C48.3797 26.3811 46.3837 28.3336 46.3837 28.3336L25.8603 48.857L20.9573 53.7167C18.0068 56.6672 13.1905 56.6672 10.24 53.7167C7.28949 50.7661 7.28949 45.9499 10.24 42.9994L14.7959 38.4434L9.11186 32.7594L4.55593 37.3153C-1.51864 43.4333 -1.51864 53.3261 4.55593 59.4441Z" fill="#EFA92B"/>
<defs>
<linearGradient id="paint0_linear" x1="16.0474" y1="26.9897" x2="16.0474" y2="6.99015" gradientUnits="userSpaceOnUse">
<stop stop-color="#264774"/>
<stop offset="1" stop-color="#4678BB"/>
</linearGradient>
<linearGradient id="paint1_linear" x1="48.0248" y1="28.7391" x2="48.0248" y2="60.9247" gradientUnits="userSpaceOnUse">
<stop stop-color="#976C14"/>
<stop offset="1" stop-color="#EFA92B"/>
</linearGradient>
<linearGradient id="paint2_linear" x1="32.5539" y1="49.9799" x2="22.3553" y2="38.4511" gradientUnits="userSpaceOnUse">
<stop stop-color="#976C14"/>
<stop offset="1" stop-color="#EFA92B"/>
</linearGradient>
<linearGradient id="paint3_linear" x1="34.7839" y1="17.9859" x2="40.7474" y2="24.2717" gradientUnits="userSpaceOnUse">
<stop stop-color="#264774"/>
<stop offset="1" stop-color="#4678BB"/>
</linearGradient>
</defs>
</svg>
